<svg id="dn" data-name="Layer 1" xmlns="http://www.w3.org/2000/svg" viewBox="0 0 545 50" width="100%" height="100%"><path d="M3.567 6.549v36.904c0 4.463-1.115 4.91-2.378 4.91H0v.968h21.405c11.742 0 19.918-9.153 19.918-24.33 0-15.105-8.176-24.33-19.918-24.33H0v.966h1.189c1.263 0 2.378.447 2.378 4.912zm14.79 41.145V2.307h3.048c2.304 0 3.567 1.414 3.567 4.39v36.681c0 2.976-1.263 4.316-3.567 4.316h-3.048zm26.31-11.012H55.74l2.23 8.036c.817 3.124.222 3.645-1.413 3.645h-.966v.968h22.223v-.968h-.595c-1.634 0-2.527-.52-3.344-3.645L61.836.67h-9.068L40.802 44.718c-.892 3.124-1.783 3.645-3.345 3.645h-.593v.968h7.729v-.968h-.817c-1.562 0-2.156-.52-1.338-3.645l2.229-8.036zm10.628-1.637H45.113l5.054-18.75 5.128 18.75zM90.524 6.623c0-3.423 1.412-4.986 4.31-4.986 6.095 0 10.777 4.093 15.682 16.742h.743V.299h-.743l-4.46 5.803C102.712 2.01 99.293 0 94.091 0 82.349 0 74.099 9.97 74.099 25.15c0 15.177 8.546 24.85 20.29 24.85 4.904 0 8.992-2.455 12.337-5.655l4.98 5.433h.743V29.91c0-4.465 1.114-4.91 2.304-4.91h1.263v-.967H94.61v.967h1.19c1.263 0 2.377.445 2.377 4.91v14.137c0 2.976-1.189 4.613-3.79 4.613-2.675 0-3.864-1.637-3.864-4.613V6.623zm43.404 17.187V2.307h4.98c1.263 0 1.932.744 3.715 3.795l8.176 14.285h.817V.67h-35.971v.967h1.19c1.262 0 2.302.522 2.302 4.986v36.904c0 4.39-1.04 4.836-2.303 4.836h-1.19v.968h35.972V29.316h-.817l-8.176 14.286c-1.783 3.05-2.452 4.166-3.715 4.166h-4.98V25.522h1.71c1.263 0 2.824.893 4.384 4.092l2.527 4.389h.744V15.329h-.744l-2.527 4.388c-1.56 3.275-3.121 4.093-4.385 4.093h-1.709zM154.812.67v.967h1.412c1.635 0 2.378.522 2.378 3.647v38.02c0 3.125-1.04 5.06-3.047 5.06h-.817v.967h9.364v-.968h-.817c-2.007 0-2.973-1.934-2.973-5.059V11.757l19.77 37.574h10.181V6.623c0-3.125 1.042-4.986 3.048-4.986h.818V.67h-9.365v.967h.818c2.081 0 2.972 1.86 2.972 4.986v25.892L171.906.67h-17.094zm55.89.967c4.83 0 10.851 5.804 14.047 16.222h.892V.373h-.892l-4.385 5.282C216.871 1.935 214.12 0 209.141 0c-6.912 0-14.048 5.954-14.048 15.179 0 14.51 23.264 18.23 23.264 28.57 0 3.126-1.858 4.763-5.277 4.763-6.318 0-11.52-3.943-17.094-16.89h-.817v18.156h.817l4.683-6.474C203.864 47.62 208.62 50 213.45 50c7.581 0 15.534-5.803 15.534-14.36 0-15.923-23.189-19.345-23.189-28.943 0-2.976 1.412-5.06 4.906-5.06zM241.99.67v.967h1.412c1.635 0 2.378.522 2.378 3.647v38.02c0 3.125-1.04 5.06-3.047 5.06h-.817v.967h9.365v-.968h-.818c-2.006 0-2.972-1.934-2.972-5.059V11.757l19.77 37.574h10.181V6.623c0-3.125 1.04-4.986 3.048-4.986h.817V.67h-9.366v.967h.819c2.082 0 2.973 1.86 2.973 4.986v25.892L259.084.67H241.99zm66.22 21.28l-6.316-16.742c-1.115-3.05-.595-3.645.966-3.645h.966V.67h-23.114v.893h.594c1.561 0 2.527.596 3.79 3.645l9.216 22.472v15.773c0 4.463-1.114 4.91-2.377 4.91h-1.19v.968h21.85v-.968h-1.188c-1.263 0-2.378-.447-2.378-4.91V24.18l6.688-18.303c1.19-3.124 2.081-4.315 4.534-4.315h.446V.67h-9.587v.893h.594c2.527 0 3.27 1.86 1.932 5.58l-5.426 14.808zm40.061 3.572v17.93c0 4.464-1.041 4.911-2.305 4.911h-.891v.968h21.553v-.968h-1.19c-1.262 0-2.377-.447-2.377-4.91V6.549c0-4.465 1.115-4.912 2.378-4.912h1.189V.67h-21.553v.967h.891c1.264 0 2.305.447 2.305 4.912v17.335h-8.4V6.55c0-4.465 1.116-4.912 2.38-4.912h.817V.67h-21.48v.967h1.19c1.264 0 2.304.447 2.304 4.912v36.904c0 4.463-1.04 4.91-2.304 4.91h-1.19v.968h21.48v-.968h-.817c-1.264 0-2.38-.447-2.38-4.91V25.522h8.4zm38.72-1.712V2.307h4.98c1.265 0 1.933.744 3.717 3.795l8.175 14.285h.818V.67h-35.973v.967h1.19c1.264 0 2.304.522 2.304 4.986v36.904c0 4.39-1.04 4.836-2.304 4.836h-1.19v.968h35.973V29.316h-.818l-8.175 14.286c-1.784 3.05-2.452 4.166-3.716 4.166h-4.98V25.522h1.708c1.265 0 2.826.893 4.386 4.092l2.528 4.389h.742V15.329h-.742l-2.528 4.388c-1.56 3.275-3.12 4.093-4.386 4.093h-1.709zM446.151.67h-38.498v19.643h.818l7.357-14.285c1.785-3.349 2.082-3.795 3.048-3.795h.668v41.22c0 4.463-1.115 4.91-2.377 4.91h-1.264v.968h22v-.968h-1.264c-1.19 0-2.304-.447-2.304-4.91V2.233h.594c.966 0 1.338.446 3.048 3.795l7.358 14.285h.817V.67zm19.622 23.14V2.307h4.98c1.264 0 1.933.744 3.716 3.795l8.176 14.285h.817V.67H447.49v.967h1.19c1.261 0 2.302.522 2.302 4.986v36.904c0 4.39-1.04 4.836-2.303 4.836h-1.19v.968h35.972V29.316h-.817l-8.176 14.286c-1.783 3.05-2.452 4.166-3.716 4.166h-4.98V25.522h1.71c1.264 0 2.825.893 4.384 4.092l2.528 4.389h.743V15.329h-.743l-2.528 4.388c-1.56 3.275-3.12 4.093-4.384 4.093h-1.71zm39.02 2.53h1.933c2.748 0 3.567 1.265 3.567 4.39v9.226c0 6.547 3.046 9.969 10.18 9.969 6.765 0 10.109-3.198 11.149-9.15l-1.337-.522c-.67 2.903-1.561 4.762-2.75 4.762-.669 0-1.116-.372-1.116-1.34V36.83c0-6.696-2.228-11.308-11.816-11.606v-.075c8.174-.893 11.816-5.506 11.816-11.608 0-7.439-5.648-12.87-17.167-12.87h-22.743v.966h1.189c1.263 0 2.304.447 2.304 4.912v36.978c0 4.464-1.04 4.836-2.304 4.836h-1.19v.968h21.926v-.968h-1.264c-1.263 0-2.378-.447-2.378-4.91V26.34zm0-1.562V2.233h1.56c3.195 0 3.94 1.265 3.94 4.39v13.764c0 3.2-.82 4.39-3.567 4.39h-1.934zM539.128 50c3.27 0 5.871-2.38 5.871-6.771 0-4.315-2.602-6.77-5.871-6.77-3.27 0-5.872 2.455-5.872 6.77 0 4.391 2.602 6.771 5.872 6.771z"></path></svg>
