<svg id="dn-small" data-name="Layer 1" xmlns="http://www.w3.org/2000/svg" viewBox="0 0 45 24" width="100%" height="100%"><g fill-rule="evenodd"><path d="M42.504 23.996c1.381 0 2.5-1.074 2.5-3 0-1.925-1.119-2.999-2.5-2.999s-2.5 1.074-2.5 3c0 1.925 1.119 2.999 2.5 2.999M9 22.984v-22h1.217c1.137 0 1.783.52 1.783 1.987V21.06c0 1.467-.646 1.924-1.783 1.924H9zm-7-20v18c0 2.202-.834 2.534-1.458 2.534H0v.478h10.525c5.8 0 9.475-4.514 9.475-11.998C20 4.55 16.325 0 10.525 0H0v.477h.542C1.166.476 2 .782 2 2.984zM20.036.058v.477l.777-.009c.809 0 1.187.698 1.187 2.239v18.292c0 1.541-.607 2.52-1.598 2.52H20v.481h5v-.481h-.404c-.991 0-1.596-.979-1.596-2.52v-16l10 19h5V2.993c0-1.541.543-2.459 1.533-2.459H40V.057h-5v.477h.402C36.43.534 37 1.516 37 3.057v13l-9-16-7.964.001z"></path></g></svg>
